<?xml version="1.0" standalone="no"?><!DOCTYPE svg PUBLIC "-//W3C//DTD SVG 1.1//EN" "http://www.w3.org/Graphics/SVG/1.1/DTD/svg11.dtd"><svg t="1689921946263" class="icon" viewBox="0 0 1024 1024" version="1.1" xmlns="http://www.w3.org/2000/svg" p-id="11896" xmlns:xlink="http://www.w3.org/1999/xlink" width="16" height="16"><path d="M563.2 68.266667v573.44a51.2 51.2 0 0 1-102.4 0V68.266667a51.2 51.2 0 0 1 102.4 0z" fill="#FFA000" p-id="11897"></path><path d="M513.092267 616.584533l290.474666-289.518933a51.2 51.2 0 0 1 72.226134 72.4992L513.092267 761.173333 148.138667 397.448533A51.2 51.2 0 0 1 220.433067 324.949333l292.6592 291.6352z" fill="#FFA000" p-id="11898"></path><path d="M51.2 641.706667v185.275733c0 109.909333 105.6768 193.604267 230.946133 193.604267h459.707734c125.269333 0 230.946133-83.694933 230.946133-193.604267V641.706667a51.2 51.2 0 1 0-102.4 0v185.275733c0 47.445333-55.296 91.204267-128.546133 91.204267H282.146133c-73.250133 0-128.546133-43.8272-128.546133-91.204267V641.706667a51.2 51.2 0 0 0-102.4 0z" fill="#FFA000" p-id="11899"></path></svg>