<?xml version="1.0" standalone="no"?><!DOCTYPE svg PUBLIC "-//W3C//DTD SVG 1.1//EN" "http://www.w3.org/Graphics/SVG/1.1/DTD/svg11.dtd"><svg t="1689922038101" class="icon" viewBox="0 0 1024 1024" version="1.1" xmlns="http://www.w3.org/2000/svg" p-id="14193" xmlns:xlink="http://www.w3.org/1999/xlink" width="16" height="16"><path d="M967.111111 1024H56.888889a56.888889 56.888889 0 0 1-56.888889-56.888889V56.888889a56.888889 56.888889 0 0 1 56.888889-56.888889h910.222222a56.888889 56.888889 0 0 1 56.888889 56.888889v910.222222a56.888889 56.888889 0 0 1-56.888889 56.888889zM113.777778 910.222222h796.444444V113.777778H113.777778z" fill="#1768E4" p-id="14194"></path><path d="M170.666667 170.666667h113.777777v113.777777H170.666667zM341.333333 170.666667h113.777778v113.777777H341.333333zM512 170.666667h113.777778v113.777777H512z" fill="#1768E4" p-id="14195"></path><path d="M967.111111 455.111111H56.888889a56.888889 56.888889 0 0 1-56.888889-56.888889V56.888889a56.888889 56.888889 0 0 1 56.888889-56.888889h910.222222a56.888889 56.888889 0 0 1 56.888889 56.888889v341.333333a56.888889 56.888889 0 0 1-56.888889 56.888889zM113.777778 341.333333h796.444444V113.777778H113.777778z" fill="#1768E4" p-id="14196"></path><path d="M267.946667 850.488889l-80.782223-80.213333 80.213334-80.213334-80.213334-80.782222 80.782223-80.782222 120.604444 120.604444a56.888889 56.888889 0 0 1 0 80.213334zM455.111111 739.555556h170.666667v113.777777H455.111111z" fill="#8BB3F1" p-id="14197"></path></svg>