<?xml version="1.0" standalone="no"?><!DOCTYPE svg PUBLIC "-//W3C//DTD SVG 1.1//EN" "http://www.w3.org/Graphics/SVG/1.1/DTD/svg11.dtd"><svg t="1689921633514" class="icon" viewBox="0 0 1024 1024" version="1.1" xmlns="http://www.w3.org/2000/svg" p-id="4083" width="16" height="16" xmlns:xlink="http://www.w3.org/1999/xlink"><path d="M512 981.333333C252.8 981.333333 42.666667 771.2 42.666667 512S252.8 42.666667 512 42.666667s469.333333 210.133333 469.333333 469.333333-210.133333 469.333333-469.333333 469.333333z m0-85.333333c212.053333 0 384-171.946667 384-384S724.053333 128 512 128C299.925333 128 128 299.946667 128 512s171.925333 384 384 384z m0-562.922667A42.666667 42.666667 0 1 1 512 247.722667 42.666667 42.666667 0 0 1 512 333.077333z m0.576 438.549334a42.666667 42.666667 0 0 1-42.538667-39.488l-0.128-3.2v-298.666667a42.666667 42.666667 0 0 1 85.226667-3.178667l0.106667 3.2v298.666667a42.666667 42.666667 0 0 1-42.666667 42.666667z" fill="#FF8400" p-id="4084"></path></svg>