<?xml version="1.0" standalone="no"?><!DOCTYPE svg PUBLIC "-//W3C//DTD SVG 1.1//EN" "http://www.w3.org/Graphics/SVG/1.1/DTD/svg11.dtd"><svg t="1689922243425" class="icon" viewBox="0 0 1121 1024" version="1.1" xmlns="http://www.w3.org/2000/svg" p-id="20119" xmlns:xlink="http://www.w3.org/1999/xlink" width="140.125" height="128"><path d="M601.952938 694.788509a22.617583 22.617583 0 0 1-10.200087-2.513065L443.482027 616.144363a422.638372 422.638372 0 0 1-83.226794 8.278331C161.427458 624.422694 0 484.578028 0 312.359174S161.427458 0 359.811751 0s359.811751 140.14032 359.811751 312.359174a288.706799 288.706799 0 0 1-96.531254 212.723546l1.330446 146.201241A22.617583 22.617583 0 0 1 601.952938 694.788509z m-155.810019-124.174968a22.174101 22.174101 0 0 1 10.200087 2.513065l122.844521 62.235311-1.182619-119.296665a23.208893 23.208893 0 0 1 7.687022-17.147972 246.132525 246.132525 0 0 0 88.696405-185.818969c0-147.827342-141.175112-267.271835-314.724411-267.271835S45.087339 164.975314 45.087339 312.359174 186.262451 579.483182 359.811751 579.483182a366.759636 366.759636 0 0 0 81.452866-9.017468 17.591454 17.591454 0 0 1 4.878302-0.591309z" fill="#FF7443" p-id="20120"></path><path d="M999.165006 286.341562h-280.87195c0 8.573986 1.330446 17.295799 1.330446 26.017612v19.069727h280.871951a76.426736 76.426736 0 0 1 76.426736 76.426736v338.968096a76.574563 76.574563 0 0 1-76.426736 76.574564H700.997257a21.878447 21.878447 0 0 0-14.782734 6.060921l-126.540205 119.296665v-103.47914a22.469756 22.469756 0 0 0-23.061066-21.878446h-36.217698a76.722391 76.722391 0 0 1-76.574564-76.574564v-127.279341a419.38617 419.38617 0 0 1-45.087339 4.43482v122.844521a121.661903 121.661903 0 0 0 121.661903 121.514076h13.747942v133.044608a22.617583 22.617583 0 0 0 13.452289 20.695828 21.287137 21.287137 0 0 0 8.86964 1.921755 22.765411 22.765411 0 0 0 15.521871-6.208748L709.571243 868.337809h289.593763a121.661903 121.661903 0 0 0 121.514076-121.514076V407.855637a121.661903 121.661903 0 0 0-121.514076-121.514075zM359.811751 387.159809a29.565468 29.565468 0 0 1-29.565468-29.565468c0-53.217843 31.487224-76.278909 52.626534-91.357298 18.774072-13.747943 25.130648-19.365382 25.130648-36.513353a47.896059 47.896059 0 0 0-95.644291 0 29.565468 29.565468 0 1 1-60.017901 0 107.91396 107.91396 0 0 1 215.82792 0c0 48.635196-29.565468 69.626678-49.965642 84.852894s-27.939368 21.13931-27.939367 43.017757a29.565468 29.565468 0 0 1-30.452433 29.565468zM359.811751 497.882489a29.565468 29.565468 0 0 1-29.565468-29.565469v-1.478273a29.565468 29.565468 0 0 1 60.017901 0v1.478273a29.565468 29.565468 0 0 1-30.452433 29.565469z" fill="#FF7443" p-id="20121"></path><path d="M722.875704 767.223906a30.452433 30.452433 0 0 1-29.565469-29.565468 29.565468 29.565468 0 0 1 29.565469-29.565468 29.565468 29.565468 0 1 1 0 60.165728zM822.511332 767.223906h-1.773928a29.565468 29.565468 0 0 1 0-60.165728h1.773928a29.565468 29.565468 0 0 1 0 60.165728zM920.964342 767.223906a30.304605 30.304605 0 0 1-29.565468-29.565468 29.565468 29.565468 0 0 1 29.565468-29.565468 29.565468 29.565468 0 0 1 0 60.165728zM920.964342 660.196911a29.565468 29.565468 0 0 1-29.565468-29.565469V422.047062a29.565468 29.565468 0 0 1 60.017901 0v208.288725a29.565468 29.565468 0 0 1-30.452433 29.861124z" fill="#FF7443" p-id="20122"></path></svg>